<?xml version="1.0" encoding="UTF-8"?>
<svg width="1024px" height="1024px" viewBox="0 0 1024 1024" version="1.1" xmlns="http://www.w3.org/2000/svg" xmlns:xlink="http://www.w3.org/1999/xlink">
    <title>avatar2</title>
    <defs>
        <path d="M1024,512 C1024,647.79 970.06,778.02 874.04,874.04 C778.02,970.06 647.79,1024 512,1024 C376.21,1024 245.98,970.06 149.96,874.04 C53.94,778.02 0,647.79 0,512 C0,376.21 53.94,245.98 149.96,149.96 C245.98,53.94 376.21,0 512,0 C647.79,0 778.02,53.94 874.04,149.96 C970.06,245.98 1024,376.21 1024,512 Z" id="path-1"></path>
        <polygon id="path-3" points="0 0 111 0 111 120 0 120"></polygon>
        <path d="M1024,512 C1024,647.79 970.06,778.02 874.04,874.04 C778.02,970.06 647.79,1024 512,1024 C376.21,1024 245.98,970.06 149.96,874.04 C53.94,778.02 0,647.79 0,512 C0,376.21 53.94,245.98 149.96,149.96 C245.98,53.94 376.21,0 512,0 C647.79,0 778.02,53.94 874.04,149.96 C970.06,245.98 1024,376.21 1024,512 Z" id="path-5"></path>
        <path d="M1024,512 C1024,647.79 970.06,778.02 874.04,874.04 C778.02,970.06 647.79,1024 512,1024 C376.21,1024 245.98,970.06 149.96,874.04 C53.94,778.02 0,647.79 0,512 C0,376.21 53.94,245.98 149.96,149.96 C245.98,53.94 376.21,0 512,0 C647.79,0 778.02,53.94 874.04,149.96 C970.06,245.98 1024,376.21 1024,512 Z" id="path-7"></path>
        <polygon id="path-9" points="0 512 0.26 528.32 1.04 544.54 2.31 560.64 4.09 576.65 6.38 592.58 9.17 608.45 12.44 624.16 16.19 639.73 20.42 655.15 25.13 670.45 30.33 685.59 35.98 700.54 42.09 715.28 48.66 729.85 55.69 744.23 63.17 758.38 71.09 772.28 79.44 785.93 88.24 799.36 97.49 812.55 107.14 825.43 117.2 838.01 127.69 850.3 138.61 862.31 149.96 874.04 161.69 885.39 173.7 896.31 185.99 906.8 198.57 916.86 211.45 926.51 224.64 935.76 238.07 944.56 251.72 952.91 265.62 960.83 279.77 968.31 294.15 975.34 308.72 981.91 323.46 988.02 338.41 993.67 353.55 998.87 368.85 1003.58 384.27 1007.81 399.84 1011.56 415.55 1014.83 431.42 1017.62 447.35 1019.91 463.36 1021.69 479.46 1022.96 495.68 1023.74 512 1024 528.32 1023.74 544.54 1022.96 560.64 1021.69 576.65 1019.91 592.58 1017.62 608.45 1014.83 624.16 1011.56 639.73 1007.81 655.15 1003.58 670.45 998.87 685.59 993.67 700.54 988.02 715.28 981.91 729.85 975.34 744.23 968.31 758.38 960.83 772.28 952.91 785.93 944.56 799.36 935.76 812.55 926.51 825.43 916.86 838.01 906.8 850.3 896.31 862.31 885.39 874.04 874.04 885.39 862.31 896.31 850.3 906.8 838.01 916.86 825.43 926.51 812.55 935.76 799.36 944.56 785.93 952.91 772.28 960.83 758.38 968.31 744.23 975.34 729.85 981.91 715.29 988.02 700.54 993.67 685.59 998.87 670.45 1003.58 655.15 1007.81 639.73 1011.56 624.16 1014.83 608.45 1017.62 592.58 1019.91 576.65 1021.69 560.64 1022.96 544.54 1023.74 528.32 1024 512 1023.74 495.68 1022.96 479.46 1021.69 463.36 1019.91 447.34 1017.62 431.42 1014.83 415.55 1011.56 399.84 1007.81 384.27 1003.58 368.85 998.87 353.55 993.67 338.41 988.02 323.46 981.91 308.72 975.34 294.15 968.31 279.77 960.83 265.62 952.91 251.72 944.56 238.07 935.76 224.64 926.51 211.45 916.86 198.57 906.8 185.99 896.31 173.7 885.39 161.69 874.04 149.96 862.31 138.61 850.3 127.69 838.01 117.2 825.43 107.14 812.55 97.49 799.36 88.24 785.93 79.44 772.28 71.09 758.38 63.17 744.23 55.69 729.85 48.66 715.28 42.09 700.54 35.98 685.59 30.33 670.45 25.13 655.15 20.42 639.73 16.19 624.16 12.44 608.45 9.17 592.58 6.38 576.65 4.09 560.64 2.31 544.54 1.04 528.32 0.26 512 0 495.68 0.26 479.46 1.04 463.36 2.31 447.35 4.09 431.42 6.38 415.55 9.17 399.84 12.44 384.27 16.19 368.85 20.42 353.55 25.13 338.41 30.33 323.46 35.98 308.72 42.09 294.15 48.66 279.77 55.69 265.62 63.17 251.72 71.09 238.07 79.44 224.64 88.24 211.45 97.49 198.57 107.14 185.99 117.2 173.7 127.69 161.69 138.61 149.96 149.96 138.61 161.69 127.69 173.7 117.2 185.99 107.14 198.57 97.49 211.45 88.24 224.64 79.44 238.07 71.09 251.72 63.17 265.62 55.69 279.77 48.66 294.15 42.09 308.72 35.98 323.46 30.33 338.41 25.13 353.55 20.42 368.85 16.19 384.27 12.44 399.84 9.17 415.55 6.38 431.42 4.09 447.34 2.31 463.36 1.04 479.46 0.26 495.68"></polygon>
        <polygon id="path-11" points="284 199 283.77 210.08 283.15 220.9 282.12 231.47 280.72 241.8 278.93 251.9 276.11 264.55 272.78 276.67 268.94 288.29 264.61 299.44 260.68 308.29 256.49 316.73 252.05 324.77 247.35 332.43 242.41 339.71 237.04 346.86 231.48 353.53 225.73 359.74 219.8 365.5 213.67 370.83 207.16 375.86 200.53 380.37 193.75 384.37 186.83 387.87 179.75 390.89 172.45 393.43 165.05 395.4 157.52 396.82 149.84 397.69 142 398 134.16 397.69 126.48 396.82 118.95 395.4 111.55 393.43 104.25 390.89 97.17 387.87 90.25 384.37 83.47 380.37 76.84 375.86 70.33 370.83 64.2 365.5 58.27 359.74 52.52 353.53 46.96 346.86 41.59 339.71 36.65 332.43 31.95 324.77 27.51 316.73 23.32 308.29 19.39 299.44 15.06 288.29 11.22 276.67 7.89 264.55 5.07 251.9 3.28 241.8 1.88 231.47 0.85 220.9 0.23 210.08 0 199 0.23 187.92 0.85 177.1 1.88 166.53 3.28 156.2 5.07 146.1 7.89 133.45 11.22 121.33 15.06 109.71 19.39 98.56 23.32 89.71 27.51 81.27 31.95 73.23 36.65 65.57 41.59 58.29 46.96 51.14 52.52 44.47 58.27 38.26 64.2 32.5 70.33 27.17 76.84 22.14 83.47 17.63 90.25 13.63 97.17 10.13 104.25 7.11 111.55 4.57 118.95 2.6 126.48 1.18 134.16 0.31 142 0 149.84 0.31 157.52 1.18 165.05 2.6 172.45 4.57 179.75 7.11 186.83 10.13 193.75 13.63 200.53 17.63 207.16 22.14 213.67 27.17 219.8 32.5 225.73 38.26 231.48 44.47 237.04 51.14 242.41 58.29 247.35 65.57 252.05 73.23 256.49 81.27 260.68 89.71 264.61 98.56 268.94 109.71 272.78 121.33 276.11 133.45 278.93 146.1 280.72 156.2 282.12 166.53 283.15 177.1 283.77 187.92"></polygon>
    </defs>
    <g id="页面-1" stroke="none" stroke-width="1" fill="none" fill-rule="evenodd">
        <g id="avatar2">
            <polygon id="路径" opacity="0" points="0 0 1024 0 1024 1024 0 1024"></polygon>
            <g id="编组">
                <polygon id="路径" fill="#6D69FB" fill-rule="nonzero" points="512 1024 495.68 1023.74 479.46 1022.96 463.36 1021.69 447.34 1019.91 431.42 1017.62 415.55 1014.83 399.84 1011.56 384.27 1007.81 368.85 1003.58 353.55 998.87 338.41 993.67 323.46 988.02 308.72 981.91 294.15 975.34 279.77 968.31 265.62 960.83 251.72 952.91 238.07 944.56 224.64 935.76 211.45 926.51 198.57 916.86 185.99 906.8 173.7 896.31 161.69 885.39 149.96 874.04 138.61 862.31 127.69 850.3 117.2 838.01 107.14 825.43 97.49 812.55 88.24 799.36 79.44 785.93 71.09 772.28 63.17 758.38 55.69 744.23 48.66 729.85 42.09 715.28 35.98 700.54 30.33 685.59 25.13 670.45 20.42 655.15 16.19 639.73 12.44 624.16 9.17 608.45 6.38 592.58 4.09 576.65 2.31 560.64 1.04 544.54 0.26 528.32 0 512 0.26 495.68 1.04 479.46 2.31 463.36 4.09 447.34 6.38 431.42 9.17 415.55 12.44 399.84 16.19 384.27 20.42 368.85 25.13 353.55 30.33 338.41 35.98 323.46 42.09 308.72 48.66 294.15 55.69 279.77 63.17 265.62 71.09 251.72 79.44 238.07 88.24 224.64 97.49 211.45 107.14 198.57 117.2 185.99 127.69 173.7 138.61 161.69 149.96 149.96 161.69 138.61 173.7 127.69 185.99 117.2 198.57 107.14 211.45 97.49 224.64 88.24 238.07 79.44 251.72 71.09 265.62 63.17 279.77 55.69 294.15 48.66 308.71 42.09 323.46 35.98 338.41 30.33 353.55 25.13 368.85 20.42 384.27 16.19 399.84 12.44 415.55 9.17 431.42 6.38 447.35 4.09 463.36 2.31 479.46 1.04 495.68 0.26 512 0 528.32 0.26 544.54 1.04 560.64 2.31 576.65 4.09 592.58 6.38 608.45 9.17 624.16 12.44 639.73 16.19 655.15 20.42 670.45 25.13 685.59 30.33 700.54 35.98 715.28 42.09 729.85 48.66 744.23 55.69 758.38 63.17 772.28 71.09 785.93 79.44 799.36 88.24 812.55 97.49 825.43 107.14 838.01 117.2 850.3 127.69 862.31 138.61 874.04 149.96 885.39 161.69 896.31 173.7 906.8 185.99 916.86 198.57 926.51 211.45 935.76 224.64 944.56 238.07 952.91 251.72 960.83 265.62 968.31 279.77 975.34 294.15 981.91 308.72 988.02 323.46 993.67 338.41 998.87 353.55 1003.58 368.85 1007.81 384.27 1011.56 399.84 1014.83 415.55 1017.62 431.42 1019.91 447.34 1021.69 463.36 1022.96 479.46 1023.74 495.68 1024 512 1023.74 528.32 1022.96 544.54 1021.69 560.64 1019.91 576.65 1017.62 592.58 1014.83 608.45 1011.56 624.16 1007.81 639.73 1003.58 655.15 998.87 670.45 993.67 685.59 988.02 700.54 981.91 715.28 975.34 729.85 968.31 744.23 960.83 758.38 952.91 772.28 944.56 785.93 935.76 799.36 926.51 812.55 916.86 825.43 906.8 838.01 896.31 850.3 885.39 862.31 874.04 874.04 862.31 885.39 850.3 896.31 838.01 906.8 825.43 916.86 812.55 926.51 799.36 935.76 785.93 944.56 772.28 952.91 758.38 960.83 744.23 968.31 729.85 975.34 715.28 981.91 700.54 988.02 685.59 993.67 670.45 998.87 655.15 1003.58 639.73 1007.81 624.16 1011.56 608.45 1014.83 592.58 1017.62 576.65 1019.91 560.64 1021.69 544.54 1022.96 528.32 1023.74"></polygon>
                <g id="Clipped">
                    <mask id="mask-2" fill="white">
                        <use xlink:href="#path-1"></use>
                    </mask>
                    <g id="路径"></g>
                    <g id="编组" mask="url(#mask-2)">
                        <g transform="translate(457, 618)">
                            <polygon id="路径" fill="#FFCACA" points="0 0 111 0 111 120 0 120"></polygon>
                            <g id="Clipped" stroke-width="1" fill="none">
                                <mask id="mask-4" fill="white">
                                    <use xlink:href="#path-3"></use>
                                </mask>
                                <g id="路径"></g>
                                <polygon id="椭圆形" fill-opacity="0.5191476" fill="#FFB0B0" mask="url(#mask-4)" points="104 10.5 103.75 12.87 103.08 15.16 101.94 17.41 100.31 19.65 97.7 22.26 94.38 24.75 90.23 27.12 85.86 29.05 80.9 30.74 75.29 32.15 69.6 33.15 63.52 33.77 57 34 50.48 33.77 44.4 33.15 38.71 32.15 33.1 30.74 28.14 29.05 23.77 27.12 19.62 24.75 16.3 22.26 13.69 19.65 12.06 17.41 10.92 15.16 10.25 12.87 10 10.5 10.25 8.13 10.92 5.84 12.06 3.59 13.69 1.35 16.3 -1.26 19.62 -3.75 23.77 -6.12 28.14 -8.05 33.1 -9.74 38.71 -11.15 44.4 -12.15 50.48 -12.77 57 -13 63.52 -12.77 69.6 -12.15 75.29 -11.15 80.9 -9.74 85.86 -8.05 90.23 -6.12 94.38 -3.75 97.7 -1.26 100.31 1.35 101.94 3.59 103.08 5.84 103.75 8.13"></polygon>
                            </g>
                        </g>
                    </g>
                </g>
                <g id="Clipped">
                    <mask id="mask-6" fill="white">
                        <use xlink:href="#path-5"></use>
                    </mask>
                    <g id="路径"></g>
                    <path d="M512.5,727 C536.46,727 557.31,719.38 568.13,708.12 C613.58,716.16 676.17,732.15 755.88,756.08 C795.73,768.04 824,803.42 826.89,844.92 L841.05,1048.57 L184,1054.57 L200.32,844.02 C203.5,802.97 231.52,768.06 270.92,756.08 C349.73,732.1 411.7,716.1 456.83,708.07 C467.63,719.35 488.51,727 512.5,727 Z" id="路径" fill="#1C3387" mask="url(#mask-6)"></path>
                </g>
                <g id="Clipped" opacity="0">
                    <mask id="mask-8" fill="white">
                        <use xlink:href="#path-7"></use>
                    </mask>
                    <g id="路径"></g>
                    <line x1="309.04" y1="902.84" x2="281.5" y2="1040.83" id="路径-6" stroke-opacity="0.1294345" stroke="#000000" stroke-width="7" stroke-linecap="round" mask="url(#mask-8)"></line>
                </g>
                <g id="Clipped" transform="translate(451, 0)">
                    <mask id="mask-10" fill="white">
                        <use xlink:href="#path-9"></use>
                    </mask>
                    <g id="路径"></g>
                    <line x1="272.96" y1="916.66" x2="300.5" y2="1054.65" id="路径-6备份" stroke-opacity="0.1294345" stroke="#000000" stroke-width="7" stroke-linecap="round" mask="url(#mask-10)"></line>
                </g>
            </g>
            <g id="编组" transform="translate(574, 861)" fill-rule="nonzero">
                <polygon id="矩形" fill-opacity="0" fill="#000000" points="0 0 104 0 104 104 0 104"></polygon>
                <path d="M24.92,48.94 L27.15,48.64 L29.12,47.8 L30.8,46.51 L32.1,44.83 L32.93,42.86 L33.23,40.63 L33.23,24.02 L32.93,21.79 L32.1,19.82 L30.8,18.14 L29.12,16.84 L27.15,16.01 L24.92,15.71 L22.7,16.01 L20.73,16.84 L19.05,18.14 L17.75,19.82 L16.92,21.79 L16.62,24.02 L16.62,40.63 L16.92,42.86 L17.75,44.83 L19.05,46.51 L20.73,47.81 L22.7,48.64 L24.92,48.94 L24.92,48.94 Z M51.92,82.17 L46.36,81.95 L41.03,81.36 L35.9,80.39 L30.96,79.07 L26.09,77.36 L21.52,75.36 L17.23,73.08 L13.2,70.5 L9.36,67.59 L5.9,64.47 L2.78,61.14 L0,57.59 L0,74.21 L2.78,77.76 L5.9,81.09 L9.37,84.21 L13.2,87.12 L17.23,89.69 L21.52,91.98 L26.09,93.97 L30.96,95.68 L35.9,97.01 L41.03,97.97 L46.36,98.57 L51.92,98.79 L57.49,98.57 L62.82,97.97 L67.95,97.01 L72.89,95.68 L77.76,93.97 L82.33,91.98 L86.62,89.69 L90.65,87.12 L94.48,84.21 L97.95,81.09 L101.06,77.76 L103.85,74.21 L103.85,57.59 L101.06,61.14 L97.95,64.47 L94.48,67.59 L90.65,70.5 L86.62,73.07 L82.33,75.36 L77.76,77.36 L72.89,79.07 L67.95,80.39 L62.82,81.36 L57.49,81.95 L51.92,82.17 L51.92,82.17 Z M78.93,48.94 L81.15,48.64 L83.12,47.8 L84.8,46.51 L86.1,44.83 L86.93,42.86 L87.23,40.63 L87.23,24.02 L86.93,21.79 L86.1,19.82 L84.8,18.14 L83.12,16.84 L81.15,16.01 L78.93,15.71 L76.7,16.01 L74.73,16.84 L73.05,18.14 L71.75,19.82 L70.92,21.79 L70.62,24.02 L70.62,40.63 L70.92,42.86 L71.75,44.83 L73.05,46.51 L74.73,47.81 L76.7,48.64 L78.93,48.94 L78.93,48.94 Z" id="形状" fill="#2C48AE"></path>
            </g>
            <g id="编组" transform="translate(370, 238)">
                <polygon id="路径" fill="#FFCACA" points="284 199 283.77 210.08 283.15 220.9 282.12 231.47 280.72 241.8 278.93 251.9 276.11 264.55 272.78 276.67 268.94 288.29 264.61 299.44 260.68 308.29 256.49 316.73 252.05 324.77 247.35 332.43 242.41 339.71 237.04 346.86 231.48 353.53 225.73 359.74 219.8 365.5 213.67 370.83 207.16 375.86 200.53 380.37 193.75 384.37 186.83 387.87 179.75 390.89 172.45 393.43 165.05 395.4 157.52 396.82 149.84 397.69 142 398 134.16 397.69 126.48 396.82 118.95 395.4 111.55 393.43 104.25 390.89 97.17 387.87 90.25 384.37 83.47 380.37 76.84 375.86 70.33 370.83 64.2 365.5 58.27 359.74 52.52 353.53 46.96 346.86 41.59 339.71 36.65 332.43 31.95 324.77 27.51 316.73 23.32 308.29 19.39 299.44 15.06 288.29 11.22 276.67 7.89 264.55 5.07 251.9 3.28 241.8 1.88 231.47 0.85 220.9 0.23 210.08 0 199 0.23 187.92 0.85 177.1 1.88 166.53 3.28 156.2 5.07 146.1 7.89 133.45 11.22 121.33 15.06 109.71 19.39 98.56 23.32 89.71 27.51 81.27 31.95 73.23 36.65 65.57 41.59 58.29 46.96 51.14 52.52 44.47 58.27 38.26 64.2 32.5 70.33 27.17 76.84 22.14 83.47 17.63 90.25 13.63 97.17 10.13 104.25 7.11 111.55 4.57 118.95 2.6 126.48 1.18 134.16 0.31 142 0 149.84 0.31 157.52 1.18 165.05 2.6 172.45 4.57 179.75 7.11 186.83 10.13 193.75 13.63 200.53 17.63 207.16 22.14 213.67 27.17 219.8 32.5 225.73 38.26 231.48 44.47 237.04 51.14 242.41 58.29 247.35 65.57 252.05 73.23 256.49 81.27 260.68 89.71 264.61 98.56 268.94 109.71 272.78 121.33 276.11 133.45 278.93 146.1 280.72 156.2 282.12 166.53 283.15 177.1 283.77 187.92"></polygon>
                <g id="Clipped">
                    <mask id="mask-12" fill="white">
                        <use xlink:href="#path-11"></use>
                    </mask>
                    <g id="路径"></g>
                    <polygon id="路径" fill-opacity="0.21633475" fill="#FFAAAA" mask="url(#mask-12)" points="284 299.5 283.66 302.96 282.71 306.26 281.13 309.43 279.05 312.32 276.46 315.02 273.31 317.53 269.87 319.65 266.01 321.48 261.71 323 257.27 324.08 252.54 324.75 247.5 325 242.46 324.75 237.73 324.08 233.29 323 228.99 321.48 225.13 319.65 221.69 317.53 218.54 315.02 215.95 312.32 213.87 309.43 212.29 306.26 211.34 302.96 211 299.5 211.34 296.04 212.29 292.74 213.87 289.57 215.95 286.68 218.54 283.98 221.69 281.47 225.13 279.35 228.99 277.52 233.29 276 237.73 274.92 242.46 274.25 247.5 274 252.54 274.25 257.27 274.92 261.71 276 266.01 277.52 269.87 279.35 273.31 281.47 276.46 283.98 279.05 286.68 281.13 289.57 282.71 292.74 283.66 296.04"></polygon>
                </g>
            </g>
            <path d="M407,458 C407,481.75 390.66,501 370.5,501 C350.34,501 334,481.75 334,458 C334,434.25 350.34,415 370.5,415 C390.66,415 407,434.25 407,458 Z" id="椭圆形" fill="#FFCACA"></path>
            <polyline id="路径-2" stroke="#FF9494" stroke-width="4" stroke-linecap="round" points="375.64 445 369.45 445.43 364.2 446.25 359.78 447.4 356.07 448.83 352.98 450.52 350.43 452.43 348.35 454.58 346.7 456.98 345.44 459.66"></polyline>
            <polyline id="路径-19" stroke="#FF9494" stroke-width="4" stroke-linecap="round" points="357.7 449 361.54 452.08 364.52 455.21 366.77 458.38 368.35 461.64 369.33 465.01 369.72 468.54 369.5 472.3 368.64 476.33"></polyline>
            <path d="M692,458 C692,481.75 675.66,501 655.5,501 C635.34,501 619,481.75 619,458 C619,434.25 635.34,415 655.5,415 C675.66,415 692,434.25 692,458 Z" id="椭圆形备份-3" fill="#FFCACA"></path>
            <polyline id="路径-2备份" stroke="#FF9494" stroke-width="4" stroke-linecap="round" points="649.44 445 655.63 445.43 660.88 446.25 665.31 447.4 669.01 448.83 672.1 450.52 674.65 452.43 676.73 454.58 678.39 456.98 679.64 459.66"></polyline>
            <polyline id="路径-19备份" stroke="#FF9494" stroke-width="4" stroke-linecap="round" points="667.38 449 663.54 452.08 660.56 455.21 658.31 458.38 656.73 461.64 655.75 465.01 655.37 468.54 655.58 472.3 656.44 476.33"></polyline>
            <path d="M557.53,410.07 C571.92,402.56 583.55,398.81 592.41,398.81 C601.27,398.81 612.9,402.56 627.29,410.07" id="路径-4" stroke="#110D2E" stroke-width="7" stroke-linecap="round"></path>
            <path d="M422.53,407.07 C436.65,403.31 448.14,401.44 457,401.44 C465.86,401.44 477.62,403.31 492.29,407.07" id="路径-4备份" stroke="#110D2E" stroke-width="7" stroke-linecap="round"></path>
            <path d="M475,445 C475,449.97 470.97,454 466,454 C461.03,454 457,449.97 457,445 C457,440.03 461.03,436 466,436 C470.97,436 475,440.03 475,445 Z" id="椭圆形" fill="#110D2E"></path>
            <path d="M587,440 C587,444.97 582.97,449 578,449 C573.03,449 569,444.97 569,440 C569,435.03 573.03,431 578,431 C582.97,431 587,435.03 587,440 Z" id="椭圆形备份" fill="#110D2E"></path>
            <path d="M522.1,472 L522.1,498 C522.1,505.73 528.37,512 536.1,512 L542.94,512 L542.94,512" id="路径-5" stroke="#FF9494" stroke-width="7" stroke-linecap="round"></path>
            <line x1="512" y1="562.5" x2="540.8" y2="562.5" id="路径-8" stroke="#110D2E" stroke-width="7" stroke-linecap="round"></line>
            <path d="M467,537.5 C467,551.58 450.66,563 430.5,563 C410.34,563 394,551.58 394,537.5 C394,523.42 410.34,512 430.5,512 C450.66,512 467,523.42 467,537.5 Z" id="椭圆形" fill-opacity="0.21633475" fill="#FFAAAA"></path>
            <polygon id="路径" fill="#110D2E" points="545.9 280.81 540.79 274.27 535.38 268.22 529.69 262.64 523.69 257.52 517.33 252.79 510.78 248.54 504.03 244.76 497.05 241.44 489.86 238.57 482.56 236.18 475.15 234.27 467.59 232.82 459.97 231.86 452.32 231.39 444.64 231.41 436.92 231.92 429.25 232.92 421.66 234.43 414.12 236.44 406.62 238.98 399.33 241.99 392.19 245.54 385.18 249.62 378.29 254.26 371.74 259.38 365.69 264.78 360.12 270.48 355 276.48 350.27 282.83 346.02 289.38 342.24 296.14 338.92 303.12 336.05 310.31 333.66 317.6 331.74 325.02 330.3 332.57 329.34 340.2 328.87 347.85 328.89 355.53 329.39 363.25 330.4 370.91 331.9 378.51 333.92 386.05 336.46 393.55 339.47 400.84 343.01 407.98 347.1 414.99 351.74 421.88 376.11 413.69 397.27 406.01 415.49 398.81 431.07 392.08 444.27 385.79 455.34 379.93 464.52 374.46 472.04 369.37 477.94 364.78 484.32 359.18 491.22 352.45 498.69 344.47 506.75 335.1 515.47 324.2 524.87 311.62 535 297.21"></polygon>
            <polygon id="路径备份" fill="#110D2E" points="651.64 425.4 657.92 418.66 663.6 411.7 668.72 404.49 673.28 397.04 677.36 389.26 680.87 381.36 683.84 373.31 686.26 365.09 688.16 356.72 689.51 348.32 690.32 339.87 690.59 331.35 690.32 322.84 689.51 314.38 688.16 305.98 686.26 297.61 683.84 289.4 680.87 281.35 677.36 273.44 673.28 265.67 668.72 258.21 663.6 251.01 657.92 244.04 651.64 237.31 644.9 231.03 637.94 225.34 630.73 220.23 623.28 215.67 615.5 211.59 607.6 208.07 599.55 205.11 591.33 202.68 582.96 200.78 574.56 199.43 566.11 198.62 557.59 198.35 549.08 198.62 540.62 199.43 532.22 200.78 523.85 202.68 515.64 205.11 507.59 208.07 499.68 211.59 491.91 215.67 484.45 220.23 477.25 225.34 470.28 231.03 463.55 237.31 473.1 258.56 482.13 277.32 490.66 293.77 498.71 308.12 506.3 320.54 513.45 331.22 520.19 340.31 526.54 347.99 532.52 354.38 538.61 360.08 546.05 366.23 555.01 372.89 565.66 380.08 578.22 387.84 592.87 396.22 609.84 405.24 629.35 414.96"></polygon>
        </g>
    </g>
</svg>