<?xml version="1.0" standalone="no"?><!DOCTYPE svg PUBLIC "-//W3C//DTD SVG 1.1//EN" "http://www.w3.org/Graphics/SVG/1.1/DTD/svg11.dtd"><svg height="1024" node-id="1" sillyvg="true" template-height="1024" template-width="1024" version="1.1" viewBox="0 0 1024 1024" width="1024" xmlns="http://www.w3.org/2000/svg" xmlns:xlink="http://www.w3.org/1999/xlink"><defs node-id="49"><clipPath id="mask-2" node-id="11"><path d="M 1024.00 512.00 C 1024.00 647.79 970.06 778.02 874.04 874.04 C 778.02 970.06 647.79 1024.00 512.00 1024.00 C 376.21 1024.00 245.98 970.06 149.96 874.04 C 53.94 778.02 0.00 647.79 0.00 512.00 C 0.00 376.21 53.94 245.98 149.96 149.96 C 245.98 53.94 376.21 0.00 512.00 0.00 C 647.79 -0.00 778.02 53.94 874.04 149.96 C 970.06 245.98 1024.00 376.21 1024.00 512.00 Z" fill="#000000" fill-rule="evenodd" node-id="54" stroke="none" target-height="1024" target-width="1024" target-x="0" target-y="0"></path></clipPath><clipPath id="mask-4" node-id="16"><path d="M 457.00 618.00 L 568.00 618.00 L 568.00 738.00 L 457.00 738.00 Z" fill="#000000" fill-rule="evenodd" node-id="61" stroke="none" target-height="120" target-width="111" target-x="457" target-y="618"></path></clipPath><clipPath id="mask-6" node-id="27"><path d="M 654.00 437.00 L 653.77 448.08 L 653.15 458.90 L 652.12 469.47 L 650.72 479.80 L 648.93 489.90 L 646.11 502.55 L 642.78 514.67 L 638.94 526.29 L 634.61 537.44 L 630.68 546.29 L 626.49 554.73 L 622.05 562.77 L 617.35 570.43 L 612.41 577.71 L 607.04 584.86 L 601.48 591.53 L 595.73 597.74 L 589.80 603.50 L 583.67 608.83 L 577.16 613.86 L 570.53 618.37 L 563.75 622.37 L 556.83 625.87 L 549.75 628.89 L 542.45 631.43 L 535.05 633.40 L 527.52 634.82 L 519.84 635.69 L 512.00 636.00 L 504.16 635.69 L 496.48 634.82 L 488.95 633.40 L 481.55 631.43 L 474.25 628.89 L 467.17 625.87 L 460.25 622.37 L 453.47 618.37 L 446.84 613.86 L 440.33 608.83 L 434.20 603.50 L 428.27 597.74 L 422.52 591.53 L 416.96 584.86 L 411.59 577.71 L 406.65 570.43 L 401.95 562.77 L 397.51 554.73 L 393.32 546.29 L 389.39 537.44 L 385.06 526.29 L 381.22 514.67 L 377.89 502.55 L 375.07 489.90 L 373.28 479.80 L 371.88 469.47 L 370.85 458.90 L 370.23 448.08 L 370.00 437.00 L 370.23 425.92 L 370.85 415.10 L 371.88 404.53 L 373.28 394.20 L 375.07 384.10 L 377.89 371.45 L 381.22 359.33 L 385.06 347.71 L 389.39 336.56 L 393.32 327.71 L 397.51 319.27 L 401.95 311.23 L 406.65 303.57 L 411.59 296.29 L 416.96 289.14 L 422.52 282.47 L 428.27 276.26 L 434.20 270.50 L 440.33 265.17 L 446.84 260.14 L 453.47 255.63 L 460.25 251.63 L 467.17 248.13 L 474.25 245.11 L 481.55 242.57 L 488.95 240.60 L 496.48 239.18 L 504.16 238.31 L 512.00 238.00 L 519.84 238.31 L 527.52 239.18 L 535.05 240.60 L 542.45 242.57 L 549.75 245.11 L 556.83 248.13 L 563.75 251.63 L 570.53 255.63 L 577.16 260.14 L 583.67 265.17 L 589.80 270.50 L 595.73 276.26 L 601.48 282.47 L 607.04 289.14 L 612.41 296.29 L 617.35 303.57 L 622.05 311.23 L 626.49 319.27 L 630.68 327.71 L 634.61 336.56 L 638.94 347.71 L 642.78 359.33 L 646.11 371.45 L 648.93 384.10 L 650.72 394.20 L 652.12 404.53 L 653.15 415.10 L 653.77 425.92 L 654.00 437.00 Z" fill="#000000" fill-rule="evenodd" node-id="68" stroke="none" target-height="398" target-width="284" target-x="370" target-y="238"></path></clipPath><clipPath id="mask-2_5" node-id="11"><path d="M 451.00 512.00 L 451.26 528.32 L 452.04 544.54 L 453.31 560.64 L 455.09 576.65 L 457.38 592.58 L 460.17 608.45 L 463.44 624.16 L 467.19 639.73 L 471.42 655.15 L 476.13 670.45 L 481.33 685.59 L 486.98 700.54 L 493.09 715.28 L 499.66 729.85 L 506.69 744.23 L 514.17 758.38 L 522.09 772.28 L 530.44 785.93 L 539.24 799.36 L 548.49 812.55 L 558.14 825.43 L 568.20 838.01 L 578.69 850.30 L 589.61 862.31 L 600.96 874.04 L 612.69 885.39 L 624.70 896.31 L 636.99 906.80 L 649.57 916.86 L 662.45 926.51 L 675.64 935.76 L 689.07 944.56 L 702.72 952.91 L 716.62 960.83 L 730.77 968.31 L 745.15 975.34 L 759.72 981.91 L 774.46 988.02 L 789.41 993.67 L 804.55 998.87 L 819.85 1003.58 L 835.27 1007.81 L 850.84 1011.56 L 866.55 1014.83 L 882.42 1017.62 L 898.35 1019.91 L 914.36 1021.69 L 930.46 1022.96 L 946.68 1023.74 L 963.00 1024.00 L 979.32 1023.74 L 995.54 1022.96 L 1011.64 1021.69 L 1027.65 1019.91 L 1043.58 1017.62 L 1059.45 1014.83 L 1075.16 1011.56 L 1090.73 1007.81 L 1106.15 1003.58 L 1121.45 998.87 L 1136.59 993.67 L 1151.54 988.02 L 1166.28 981.91 L 1180.85 975.34 L 1195.23 968.31 L 1209.38 960.83 L 1223.28 952.91 L 1236.93 944.56 L 1250.36 935.76 L 1263.55 926.51 L 1276.43 916.86 L 1289.01 906.80 L 1301.30 896.31 L 1313.31 885.39 L 1325.04 874.04 L 1336.39 862.31 L 1347.31 850.30 L 1357.80 838.01 L 1367.86 825.43 L 1377.51 812.55 L 1386.76 799.36 L 1395.56 785.93 L 1403.91 772.28 L 1411.83 758.38 L 1419.31 744.23 L 1426.34 729.85 L 1432.91 715.29 L 1439.02 700.54 L 1444.67 685.59 L 1449.87 670.45 L 1454.58 655.15 L 1458.81 639.73 L 1462.56 624.16 L 1465.83 608.45 L 1468.62 592.58 L 1470.91 576.65 L 1472.69 560.64 L 1473.96 544.54 L 1474.74 528.32 L 1475.00 512.00 L 1474.74 495.68 L 1473.96 479.46 L 1472.69 463.36 L 1470.91 447.34 L 1468.62 431.42 L 1465.83 415.55 L 1462.56 399.84 L 1458.81 384.27 L 1454.58 368.85 L 1449.87 353.55 L 1444.67 338.41 L 1439.02 323.46 L 1432.91 308.72 L 1426.34 294.15 L 1419.31 279.77 L 1411.83 265.62 L 1403.91 251.72 L 1395.56 238.07 L 1386.76 224.64 L 1377.51 211.45 L 1367.86 198.57 L 1357.80 185.99 L 1347.31 173.70 L 1336.39 161.69 L 1325.04 149.96 L 1313.31 138.61 L 1301.30 127.69 L 1289.01 117.20 L 1276.43 107.14 L 1263.55 97.49 L 1250.36 88.24 L 1236.93 79.44 L 1223.28 71.09 L 1209.38 63.17 L 1195.23 55.69 L 1180.85 48.66 L 1166.28 42.09 L 1151.54 35.98 L 1136.59 30.33 L 1121.45 25.13 L 1106.15 20.42 L 1090.73 16.19 L 1075.16 12.44 L 1059.45 9.17 L 1043.58 6.38 L 1027.65 4.09 L 1011.64 2.31 L 995.54 1.04 L 979.32 0.26 L 963.00 0.00 L 946.68 0.26 L 930.46 1.04 L 914.36 2.31 L 898.35 4.09 L 882.42 6.38 L 866.55 9.17 L 850.84 12.44 L 835.27 16.19 L 819.85 20.42 L 804.55 25.13 L 789.41 30.33 L 774.46 35.98 L 759.72 42.09 L 745.15 48.66 L 730.77 55.69 L 716.62 63.17 L 702.72 71.09 L 689.07 79.44 L 675.64 88.24 L 662.45 97.49 L 649.57 107.14 L 636.99 117.20 L 624.70 127.69 L 612.69 138.61 L 600.96 149.96 L 589.61 161.69 L 578.69 173.70 L 568.20 185.99 L 558.14 198.57 L 548.49 211.45 L 539.24 224.64 L 530.44 238.07 L 522.09 251.72 L 514.17 265.62 L 506.69 279.77 L 499.66 294.15 L 493.09 308.72 L 486.98 323.46 L 481.33 338.41 L 476.13 353.55 L 471.42 368.85 L 467.19 384.27 L 463.44 399.84 L 460.17 415.55 L 457.38 431.42 L 455.09 447.34 L 453.31 463.36 L 452.04 479.46 L 451.26 495.68 L 451.00 512.00 Z" fill="#000000" fill-rule="evenodd" node-id="54" stroke="none" target-height="1024" target-width="1024" target-x="451" target-y="0"></path></clipPath></defs><path d="M 0.00 0.00 L 1024.00 0.00 L 1024.00 1024.00 L 0.00 1024.00 Z" fill="#ffffff" fill-rule="evenodd" node-id="74" stroke="none" target-height="1024" target-width="1024" target-x="0" target-y="0"></path><g node-id="125"><g node-id="133"><path d="M 512.00 1024.00 L 495.68 1023.74 L 479.46 1022.96 L 463.36 1021.69 L 447.34 1019.91 L 431.42 1017.62 L 415.55 1014.83 L 399.84 1011.56 L 384.27 1007.81 L 368.85 1003.58 L 353.55 998.87 L 338.41 993.67 L 323.46 988.02 L 308.72 981.91 L 294.15 975.34 L 279.77 968.31 L 265.62 960.83 L 251.72 952.91 L 238.07 944.56 L 224.64 935.76 L 211.45 926.51 L 198.57 916.86 L 185.99 906.80 L 173.70 896.31 L 161.69 885.39 L 149.96 874.04 L 138.61 862.31 L 127.69 850.30 L 117.20 838.01 L 107.14 825.43 L 97.49 812.55 L 88.24 799.36 L 79.44 785.93 L 71.09 772.28 L 63.17 758.38 L 55.69 744.23 L 48.66 729.85 L 42.09 715.28 L 35.98 700.54 L 30.33 685.59 L 25.13 670.45 L 20.42 655.15 L 16.19 639.73 L 12.44 624.16 L 9.17 608.45 L 6.38 592.58 L 4.09 576.65 L 2.31 560.64 L 1.04 544.54 L 0.26 528.32 L 0.00 512.00 L 0.26 495.68 L 1.04 479.46 L 2.31 463.36 L 4.09 447.34 L 6.38 431.42 L 9.17 415.55 L 12.44 399.84 L 16.19 384.27 L 20.42 368.85 L 25.13 353.55 L 30.33 338.41 L 35.98 323.46 L 42.09 308.72 L 48.66 294.15 L 55.69 279.77 L 63.17 265.62 L 71.09 251.72 L 79.44 238.07 L 88.24 224.64 L 97.49 211.45 L 107.14 198.57 L 117.20 185.99 L 127.69 173.70 L 138.61 161.69 L 149.96 149.96 L 161.69 138.61 L 173.70 127.69 L 185.99 117.20 L 198.57 107.14 L 211.45 97.49 L 224.64 88.24 L 238.07 79.44 L 251.72 71.09 L 265.62 63.17 L 279.77 55.69 L 294.15 48.66 L 308.71 42.09 L 323.46 35.98 L 338.41 30.33 L 353.55 25.13 L 368.85 20.42 L 384.27 16.19 L 399.84 12.44 L 415.55 9.17 L 431.42 6.38 L 447.35 4.09 L 463.36 2.31 L 479.46 1.04 L 495.68 0.26 L 512.00 0.00 L 528.32 0.26 L 544.54 1.04 L 560.64 2.31 L 576.65 4.09 L 592.58 6.38 L 608.45 9.17 L 624.16 12.44 L 639.73 16.19 L 655.15 20.42 L 670.45 25.13 L 685.59 30.33 L 700.54 35.98 L 715.28 42.09 L 729.85 48.66 L 744.23 55.69 L 758.38 63.17 L 772.28 71.09 L 785.93 79.44 L 799.36 88.24 L 812.55 97.49 L 825.43 107.14 L 838.01 117.20 L 850.30 127.69 L 862.31 138.61 L 874.04 149.96 L 885.39 161.69 L 896.31 173.70 L 906.80 185.99 L 916.86 198.57 L 926.51 211.45 L 935.76 224.64 L 944.56 238.07 L 952.91 251.72 L 960.83 265.62 L 968.31 279.77 L 975.34 294.15 L 981.91 308.72 L 988.02 323.46 L 993.67 338.41 L 998.87 353.55 L 1003.58 368.85 L 1007.81 384.27 L 1011.56 399.84 L 1014.83 415.55 L 1017.62 431.42 L 1019.91 447.34 L 1021.69 463.36 L 1022.96 479.46 L 1023.74 495.68 L 1024.00 512.00 L 1023.74 528.32 L 1022.96 544.54 L 1021.69 560.64 L 1019.91 576.65 L 1017.62 592.58 L 1014.83 608.45 L 1011.56 624.16 L 1007.81 639.73 L 1003.58 655.15 L 998.87 670.45 L 993.67 685.59 L 988.02 700.54 L 981.91 715.28 L 975.34 729.85 L 968.31 744.23 L 960.83 758.38 L 952.91 772.28 L 944.56 785.93 L 935.76 799.36 L 926.51 812.55 L 916.86 825.43 L 906.80 838.01 L 896.31 850.30 L 885.39 862.31 L 874.04 874.04 L 862.31 885.39 L 850.30 896.31 L 838.01 906.80 L 825.43 916.86 L 812.55 926.51 L 799.36 935.76 L 785.93 944.56 L 772.28 952.91 L 758.38 960.83 L 744.23 968.31 L 729.85 975.34 L 715.28 981.91 L 700.54 988.02 L 685.59 993.67 L 670.45 998.87 L 655.15 1003.58 L 639.73 1007.81 L 624.16 1011.56 L 608.45 1014.83 L 592.58 1017.62 L 576.65 1019.91 L 560.64 1021.69 L 544.54 1022.96 L 528.32 1023.74 L 512.00 1024.00 Z" fill="#6d69fb" fill-rule="nonzero" group-id="1,9" node-id="79" stroke="none" target-height="1024" target-width="1024" target-x="0" target-y="0"></path></g><g node-id="134"><g clip-path="url(#mask-2)" group-id="1,10" node-id="83"><path d="M 457.00 618.00 L 568.00 618.00 L 568.00 738.00 L 457.00 738.00 Z" fill="#ffcaca" fill-rule="evenodd" group-id="1,10,17,18" node-id="86" stroke="none" target-height="120" target-width="111" target-x="457" target-y="618"></path><g clip-path="url(#mask-4)" group-id="1,10,17,19" node-id="89"><path d="M 561.00 628.50 L 560.75 630.87 L 560.08 633.16 L 558.94 635.41 L 557.31 637.65 L 554.70 640.26 L 551.38 642.75 L 547.23 645.12 L 542.86 647.05 L 537.90 648.74 L 532.29 650.15 L 526.60 651.15 L 520.52 651.77 L 514.00 652.00 L 507.48 651.77 L 501.40 651.15 L 495.71 650.15 L 490.10 648.74 L 485.14 647.05 L 480.77 645.12 L 476.62 642.75 L 473.30 640.26 L 470.69 637.65 L 469.06 635.41 L 467.92 633.16 L 467.25 630.87 L 467.00 628.50 L 467.25 626.13 L 467.92 623.84 L 469.06 621.59 L 470.69 619.35 L 473.30 616.74 L 476.62 614.25 L 480.77 611.88 L 485.14 609.95 L 490.10 608.26 L 495.71 606.85 L 501.40 605.85 L 507.48 605.23 L 514.00 605.00 L 520.52 605.23 L 526.60 605.85 L 532.29 606.85 L 537.90 608.26 L 542.86 609.95 L 547.23 611.88 L 551.38 614.25 L 554.70 616.74 L 557.31 619.35 L 558.94 621.59 L 560.08 623.84 L 560.75 626.13 L 561.00 628.50 Z" fill="#ffb0b0" fill-opacity="0.5191476" fill-rule="evenodd" group-id="1,10,17,19" id="椭圆形" node-id="19" stroke="none" target-height="47" target-width="94" target-x="467" target-y="605"></path></g></g></g><g node-id="135"><g clip-path="url(#mask-2)" group-id="1,11" node-id="95"><path d="M 512.50 727.00 C 536.46 727.00 557.31 719.38 568.13 708.12 C 613.58 716.16 676.17 732.15 755.88 756.08 C 795.73 768.04 824.00 803.42 826.89 844.92 L 841.05 1048.57 L 184.00 1054.57 L 200.32 844.02 C 203.50 802.97 231.52 768.06 270.92 756.08 C 349.73 732.10 411.70 716.10 456.83 708.07 C 467.63 719.35 488.51 727.00 512.50 727.00 Z" fill="#1c3387" fill-rule="evenodd" group-id="1,11" node-id="97" stroke="none" target-height="346.49994" target-width="657.05" target-x="184" target-y="708.07"></path></g></g><g node-id="136"><g clip-path="url(#mask-2)" group-id="1,12" node-id="100"><path d="M 309.04 902.84 L 281.50 1040.83" fill="none" group-id="1,12" id="路径-6" node-id="21" stroke="#000000" stroke-linecap="round" stroke-opacity="0.1294345" stroke-width="7" target-height="137.98993" target-width="27.540009" target-x="281.5" target-y="902.84"></path></g></g><g clip-path="url(#mask-2_5)" group-id="1,13" node-id="104"><path d="M 723.96 916.66 L 751.50 1054.65" fill="none" group-id="1,13" id="路径-6备份" node-id="22" stroke="#000000" stroke-linecap="round" stroke-opacity="0.1294345" stroke-width="7" target-height="137.99005" target-width="27.539978" target-x="723.96" target-y="916.66"></path></g></g><g node-id="126"><g node-id="138"><path d="M 574.00 861.00 L 678.00 861.00 L 678.00 965.00 L 574.00 965.00 Z" fill="#000000" fill-opacity="0" fill-rule="nonzero" group-id="2,14" id="矩形" node-id="24" stroke="none" target-height="104" target-width="104" target-x="574" target-y="861"></path></g><path d="M 598.92 909.94 L 601.15 909.64 L 603.12 908.80 L 604.80 907.51 L 606.10 905.83 L 606.93 903.86 L 607.23 901.63 L 607.23 885.02 L 606.93 882.79 L 606.10 880.82 L 604.80 879.14 L 603.12 877.84 L 601.15 877.01 L 598.92 876.71 L 596.70 877.01 L 594.73 877.84 L 593.05 879.14 L 591.75 880.82 L 590.92 882.79 L 590.62 885.02 L 590.62 901.63 L 590.92 903.86 L 591.75 905.83 L 593.05 907.51 L 594.73 908.81 L 596.70 909.64 L 598.92 909.94 L 598.92 909.94 Z M 625.92 943.17 L 620.36 942.95 L 615.03 942.36 L 609.90 941.39 L 604.96 940.07 L 600.09 938.36 L 595.52 936.36 L 591.23 934.08 L 587.20 931.50 L 583.36 928.59 L 579.90 925.47 L 576.78 922.14 L 574.00 918.59 L 574.00 935.21 L 576.78 938.76 L 579.90 942.09 L 583.37 945.21 L 587.20 948.12 L 591.23 950.69 L 595.52 952.98 L 600.09 954.97 L 604.96 956.68 L 609.90 958.01 L 615.03 958.97 L 620.36 959.57 L 625.92 959.79 L 631.49 959.57 L 636.82 958.97 L 641.95 958.01 L 646.89 956.68 L 651.76 954.97 L 656.33 952.98 L 660.62 950.69 L 664.65 948.12 L 668.48 945.21 L 671.95 942.09 L 675.06 938.76 L 677.85 935.21 L 677.85 918.59 L 675.06 922.14 L 671.95 925.47 L 668.48 928.59 L 664.65 931.50 L 660.62 934.07 L 656.33 936.36 L 651.76 938.36 L 646.89 940.07 L 641.95 941.39 L 636.82 942.36 L 631.49 942.95 L 625.92 943.17 L 625.92 943.17 Z M 652.93 909.94 L 655.15 909.64 L 657.12 908.80 L 658.80 907.51 L 660.10 905.83 L 660.93 903.86 L 661.23 901.63 L 661.23 885.02 L 660.93 882.79 L 660.10 880.82 L 658.80 879.14 L 657.12 877.84 L 655.15 877.01 L 652.93 876.71 L 650.70 877.01 L 648.73 877.84 L 647.05 879.14 L 645.75 880.82 L 644.92 882.79 L 644.62 885.02 L 644.62 901.63 L 644.92 903.86 L 645.75 905.83 L 647.05 907.51 L 648.73 908.81 L 650.70 909.64 L 652.93 909.94 L 652.93 909.94 Z" fill="#2c48ae" fill-rule="nonzero" group-id="2" id="形状" node-id="25" stroke="none" target-height="83.079956" target-width="103.849976" target-x="574" target-y="876.71"></path></g><g node-id="127"><g node-id="139"><path d="M 654.00 437.00 L 653.77 448.08 L 653.15 458.90 L 652.12 469.47 L 650.72 479.80 L 648.93 489.90 L 646.11 502.55 L 642.78 514.67 L 638.94 526.29 L 634.61 537.44 L 630.68 546.29 L 626.49 554.73 L 622.05 562.77 L 617.35 570.43 L 612.41 577.71 L 607.04 584.86 L 601.48 591.53 L 595.73 597.74 L 589.80 603.50 L 583.67 608.83 L 577.16 613.86 L 570.53 618.37 L 563.75 622.37 L 556.83 625.87 L 549.75 628.89 L 542.45 631.43 L 535.05 633.40 L 527.52 634.82 L 519.84 635.69 L 512.00 636.00 L 504.16 635.69 L 496.48 634.82 L 488.95 633.40 L 481.55 631.43 L 474.25 628.89 L 467.17 625.87 L 460.25 622.37 L 453.47 618.37 L 446.84 613.86 L 440.33 608.83 L 434.20 603.50 L 428.27 597.74 L 422.52 591.53 L 416.96 584.86 L 411.59 577.71 L 406.65 570.43 L 401.95 562.77 L 397.51 554.73 L 393.32 546.29 L 389.39 537.44 L 385.06 526.29 L 381.22 514.67 L 377.89 502.55 L 375.07 489.90 L 373.28 479.80 L 371.88 469.47 L 370.85 458.90 L 370.23 448.08 L 370.00 437.00 L 370.23 425.92 L 370.85 415.10 L 371.88 404.53 L 373.28 394.20 L 375.07 384.10 L 377.89 371.45 L 381.22 359.33 L 385.06 347.71 L 389.39 336.56 L 393.32 327.71 L 397.51 319.27 L 401.95 311.23 L 406.65 303.57 L 411.59 296.29 L 416.96 289.14 L 422.52 282.47 L 428.27 276.26 L 434.20 270.50 L 440.33 265.17 L 446.84 260.14 L 453.47 255.63 L 460.25 251.63 L 467.17 248.13 L 474.25 245.11 L 481.55 242.57 L 488.95 240.60 L 496.48 239.18 L 504.16 238.31 L 512.00 238.00 L 519.84 238.31 L 527.52 239.18 L 535.05 240.60 L 542.45 242.57 L 549.75 245.11 L 556.83 248.13 L 563.75 251.63 L 570.53 255.63 L 577.16 260.14 L 583.67 265.17 L 589.80 270.50 L 595.73 276.26 L 601.48 282.47 L 607.04 289.14 L 612.41 296.29 L 617.35 303.57 L 622.05 311.23 L 626.49 319.27 L 630.68 327.71 L 634.61 336.56 L 638.94 347.71 L 642.78 359.33 L 646.11 371.45 L 648.93 384.10 L 650.72 394.20 L 652.12 404.53 L 653.15 415.10 L 653.77 425.92 L 654.00 437.00 Z" fill="#ffcaca" fill-rule="evenodd" group-id="3,15" node-id="118" stroke="none" target-height="398" target-width="284" target-x="370" target-y="238"></path></g><g clip-path="url(#mask-6)" group-id="3,16" node-id="121"><path d="M 654.00 537.50 L 653.66 540.96 L 652.71 544.26 L 651.13 547.43 L 649.05 550.32 L 646.46 553.02 L 643.31 555.53 L 639.87 557.65 L 636.01 559.48 L 631.71 561.00 L 627.27 562.08 L 622.54 562.75 L 617.50 563.00 L 612.46 562.75 L 607.73 562.08 L 603.29 561.00 L 598.99 559.48 L 595.13 557.65 L 591.69 555.53 L 588.54 553.02 L 585.95 550.32 L 583.87 547.43 L 582.29 544.26 L 581.34 540.96 L 581.00 537.50 L 581.34 534.04 L 582.29 530.74 L 583.87 527.57 L 585.95 524.68 L 588.54 521.98 L 591.69 519.47 L 595.13 517.35 L 598.99 515.52 L 603.29 514.00 L 607.73 512.92 L 612.46 512.25 L 617.50 512.00 L 622.54 512.25 L 627.27 512.92 L 631.71 514.00 L 636.01 515.52 L 639.87 517.35 L 643.31 519.47 L 646.46 521.98 L 649.05 524.68 L 651.13 527.57 L 652.71 530.74 L 653.66 534.04 L 654.00 537.50 Z" fill="#ffaaaa" fill-opacity="0.21633475" fill-rule="evenodd" group-id="3,16" node-id="123" stroke="none" target-height="51" target-width="73" target-x="581" target-y="512"></path></g></g><path d="M 407.00 458.00 C 407.00 481.75 390.66 501.00 370.50 501.00 C 350.34 501.00 334.00 481.75 334.00 458.00 C 334.00 434.25 350.34 415.00 370.50 415.00 C 390.66 415.00 407.00 434.25 407.00 458.00 Z" fill="#ffcaca" fill-rule="evenodd" id="椭圆形" node-id="31" stroke="none" target-height="86" target-width="73" target-x="334" target-y="415"></path><path d="M 375.64 445.00 L 369.45 445.43 L 364.20 446.25 L 359.78 447.40 L 356.07 448.83 L 352.98 450.52 L 350.43 452.43 L 348.35 454.58 L 346.70 456.98 L 345.44 459.66" fill="none" group-id="4" id="路径-2" node-id="33" stroke="#ff9494" stroke-linecap="round" stroke-width="4" target-height="14.660004" target-width="30.200012" target-x="345.44" target-y="445"></path><path d="M 357.70 449.00 L 361.54 452.08 L 364.52 455.21 L 366.77 458.38 L 368.35 461.64 L 369.33 465.01 L 369.72 468.54 L 369.50 472.30 L 368.64 476.33" fill="none" group-id="4" id="路径-19" node-id="34" stroke="#ff9494" stroke-linecap="round" stroke-width="4" target-height="27.329987" target-width="12.019989" target-x="357.7" target-y="449"></path><path d="M 692.00 458.00 C 692.00 481.75 675.66 501.00 655.50 501.00 C 635.34 501.00 619.00 481.75 619.00 458.00 C 619.00 434.25 635.34 415.00 655.50 415.00 C 675.66 415.00 692.00 434.25 692.00 458.00 Z" fill="#ffcaca" fill-rule="evenodd" id="椭圆形备份-3" node-id="35" stroke="none" target-height="86" target-width="73" target-x="619" target-y="415"></path><path d="M 649.44 445.00 L 655.63 445.43 L 660.88 446.25 L 665.31 447.40 L 669.01 448.83 L 672.10 450.52 L 674.65 452.43 L 676.73 454.58 L 678.39 456.98 L 679.64 459.66" fill="none" group-id="5" id="路径-2备份" node-id="37" stroke="#ff9494" stroke-linecap="round" stroke-width="4" target-height="14.660004" target-width="30.200012" target-x="649.44" target-y="445"></path><path d="M 667.38 449.00 L 663.54 452.08 L 660.56 455.21 L 658.31 458.38 L 656.73 461.64 L 655.75 465.01 L 655.37 468.54 L 655.58 472.30 L 656.44 476.33" fill="none" group-id="5" id="路径-19备份" node-id="38" stroke="#ff9494" stroke-linecap="round" stroke-width="4" target-height="27.329987" target-width="12.01001" target-x="655.37" target-y="449"></path><path d="M 557.53 410.07 C 571.92 402.56 583.55 398.81 592.41 398.81 C 601.27 398.81 612.90 402.56 627.29 410.07" fill="none" id="路径-4" node-id="39" stroke="#110d2e" stroke-linecap="round" stroke-width="7" target-height="11.26001" target-width="69.75995" target-x="557.53" target-y="398.81"></path><path d="M 422.53 407.07 C 436.65 403.31 448.14 401.44 457.00 401.44 C 465.86 401.44 477.62 403.31 492.29 407.07" fill="none" id="路径-4备份" node-id="40" stroke="#110d2e" stroke-linecap="round" stroke-width="7" target-height="5.630005" target-width="69.76001" target-x="422.53" target-y="401.44"></path><path d="M 475.00 445.00 C 475.00 449.97 470.97 454.00 466.00 454.00 C 461.03 454.00 457.00 449.97 457.00 445.00 C 457.00 440.03 461.03 436.00 466.00 436.00 C 470.97 436.00 475.00 440.03 475.00 445.00 Z" fill="#110d2e" fill-rule="evenodd" id="椭圆形" node-id="41" stroke="none" target-height="18" target-width="18" target-x="457" target-y="436"></path><path d="M 587.00 440.00 C 587.00 444.97 582.97 449.00 578.00 449.00 C 573.03 449.00 569.00 444.97 569.00 440.00 C 569.00 435.03 573.03 431.00 578.00 431.00 C 582.97 431.00 587.00 435.03 587.00 440.00 Z" fill="#110d2e" fill-rule="evenodd" id="椭圆形备份" node-id="42" stroke="none" target-height="18" target-width="18" target-x="569" target-y="431"></path><path d="M 522.10 472.00 L 522.10 498.00 C 522.10 505.73 528.37 512.00 536.10 512.00 L 542.94 512.00 L 542.94 512.00" fill="none" id="路径-5" node-id="43" stroke="#ff9494" stroke-linecap="round" stroke-width="7" target-height="40" target-width="20.840027" target-x="522.1" target-y="472"></path><path d="M 512.00 562.50 L 540.80 562.50" fill="none" id="路径-8" node-id="44" stroke="#110d2e" stroke-linecap="round" stroke-width="7" target-height="0" target-width="28.799988" target-x="512" target-y="562.5"></path><path d="M 467.00 537.50 C 467.00 551.58 450.66 563.00 430.50 563.00 C 410.34 563.00 394.00 551.58 394.00 537.50 C 394.00 523.42 410.34 512.00 430.50 512.00 C 450.66 512.00 467.00 523.42 467.00 537.50 Z" fill="#ffaaaa" fill-opacity="0.21633475" fill-rule="evenodd" group-id="6" id="椭圆形" node-id="45" stroke="none" target-height="51" target-width="73" target-x="394" target-y="512"></path><path d="M 545.90 280.81 L 540.79 274.27 L 535.38 268.22 L 529.69 262.64 L 523.69 257.52 L 517.33 252.79 L 510.78 248.54 L 504.03 244.76 L 497.05 241.44 L 489.86 238.57 L 482.56 236.18 L 475.15 234.27 L 467.59 232.82 L 459.97 231.86 L 452.32 231.39 L 444.64 231.41 L 436.92 231.92 L 429.25 232.92 L 421.66 234.43 L 414.12 236.44 L 406.62 238.98 L 399.33 241.99 L 392.19 245.54 L 385.18 249.62 L 378.29 254.26 L 371.74 259.38 L 365.69 264.78 L 360.12 270.48 L 355.00 276.48 L 350.27 282.83 L 346.02 289.38 L 342.24 296.14 L 338.92 303.12 L 336.05 310.31 L 333.66 317.60 L 331.74 325.02 L 330.30 332.57 L 329.34 340.20 L 328.87 347.85 L 328.89 355.53 L 329.39 363.25 L 330.40 370.91 L 331.90 378.51 L 333.92 386.05 L 336.46 393.55 L 339.47 400.84 L 343.01 407.98 L 347.10 414.99 L 351.74 421.88 L 376.11 413.69 L 397.27 406.01 L 415.49 398.81 L 431.07 392.08 L 444.27 385.79 L 455.34 379.93 L 464.52 374.46 L 472.04 369.37 L 477.94 364.78 L 484.32 359.18 L 491.22 352.45 L 498.69 344.47 L 506.75 335.10 L 515.47 324.20 L 524.87 311.62 L 535.00 297.21 L 545.90 280.81 Z" fill="#110d2e" fill-rule="evenodd" group-id="7" id="路径" node-id="46" stroke="none" target-height="190.49" target-width="217.03003" target-x="328.87" target-y="231.39"></path><path d="M 651.64 425.40 L 657.92 418.66 L 663.60 411.70 L 668.72 404.49 L 673.28 397.04 L 677.36 389.26 L 680.87 381.36 L 683.84 373.31 L 686.26 365.09 L 688.16 356.72 L 689.51 348.32 L 690.32 339.87 L 690.59 331.35 L 690.32 322.84 L 689.51 314.38 L 688.16 305.98 L 686.26 297.61 L 683.84 289.40 L 680.87 281.35 L 677.36 273.44 L 673.28 265.67 L 668.72 258.21 L 663.60 251.01 L 657.92 244.04 L 651.64 237.31 L 644.90 231.03 L 637.94 225.34 L 630.73 220.23 L 623.28 215.67 L 615.50 211.59 L 607.60 208.07 L 599.55 205.11 L 591.33 202.68 L 582.96 200.78 L 574.56 199.43 L 566.11 198.62 L 557.59 198.35 L 549.08 198.62 L 540.62 199.43 L 532.22 200.78 L 523.85 202.68 L 515.64 205.11 L 507.59 208.07 L 499.68 211.59 L 491.91 215.67 L 484.45 220.23 L 477.25 225.34 L 470.28 231.03 L 463.55 237.31 L 473.10 258.56 L 482.13 277.32 L 490.66 293.77 L 498.71 308.12 L 506.30 320.54 L 513.45 331.22 L 520.19 340.31 L 526.54 347.99 L 532.52 354.38 L 538.61 360.08 L 546.05 366.23 L 555.01 372.89 L 565.66 380.08 L 578.22 387.84 L 592.87 396.22 L 609.84 405.24 L 629.35 414.96 L 651.64 425.40 Z" fill="#110d2e" fill-rule="evenodd" group-id="8" id="路径备份" node-id="47" stroke="none" target-height="227.04999" target-width="227.04004" target-x="463.55" target-y="198.35"></path></svg>